<svg xmlns="http://www.w3.org/2000/svg" xmlns:xlink="http://www.w3.org/1999/xlink" width="500" zoomAndPan="magnify" viewBox="0 0 375 374.999991" height="500" preserveAspectRatio="xMidYMid meet" version="1.0"><defs><clipPath id="8e931b8708"><path d="M 37.5 37.5 L 337.5 37.5 L 337.5 337.5 L 37.5 337.5 Z M 37.5 37.5 " clip-rule="nonzero"/></clipPath><clipPath id="fb9bdfafa1"><path d="M 55.238281 163.28125 C 63.96875 173.777344 63.984375 201.621094 55.304688 212.160156 C 44.394531 225.402344 37.859375 242.351562 37.859375 260.773438 C 37.859375 303.320312 72.324219 337.5 114.40625 337.5 C 132.925781 337.5 149.875 330.988281 163.113281 320.109375 C 173.675781 311.429688 201.6875 311.425781 212.25 320.105469 C 225.488281 330.988281 242.4375 337.5 260.960938 337.5 C 303.042969 337.5 337.5 303.320312 337.5 260.773438 C 337.5 242.214844 330.761719 225.152344 319.664062 211.863281 C 310.949219 201.421875 310.949219 173.933594 319.652344 163.480469 C 330.757812 150.152344 337.5 132.992188 337.5 114.226562 C 337.5 72.046875 303.042969 37.5 260.960938 37.5 C 242.597656 37.5 225.84375 43.871094 212.675781 54.53125 C 201.957031 63.210938 172.871094 63.113281 162.152344 54.433594 C 149.054688 43.832031 132.347656 37.5 114.039062 37.5 C 71.957031 37.5 37.5 72.046875 37.5 114.226562 C 37.5 132.898438 44.175781 149.980469 55.238281 163.28125 Z M 55.238281 163.28125 " clip-rule="nonzero"/></clipPath><clipPath id="b02e493db3"><path d="M 0.5 0.5 L 300.5 0.5 L 300.5 300.5 L 0.5 300.5 Z M 0.5 0.5 " clip-rule="nonzero"/></clipPath><clipPath id="c69eb9857c"><path d="M 18.238281 126.28125 C 26.96875 136.777344 26.984375 164.621094 18.304688 175.160156 C 7.394531 188.402344 0.859375 205.351562 0.859375 223.773438 C 0.859375 266.320312 35.324219 300.5 77.40625 300.5 C 95.925781 300.5 112.875 293.988281 126.113281 283.109375 C 136.675781 274.429688 164.6875 274.425781 175.25 283.105469 C 188.488281 293.988281 205.4375 300.5 223.960938 300.5 C 266.042969 300.5 300.5 266.320312 300.5 223.773438 C 300.5 205.214844 293.761719 188.152344 282.664062 174.863281 C 273.949219 164.421875 273.949219 136.933594 282.652344 126.480469 C 293.757812 113.152344 300.5 95.992188 300.5 77.226562 C 300.5 35.046875 266.042969 0.5 223.960938 0.5 C 205.597656 0.5 188.84375 6.871094 175.675781 17.53125 C 164.957031 26.210938 135.871094 26.113281 125.152344 17.433594 C 112.054688 6.832031 95.347656 0.5 77.039062 0.5 C 34.957031 0.5 0.5 35.046875 0.5 77.226562 C 0.5 95.898438 7.175781 112.980469 18.238281 126.28125 Z M 18.238281 126.28125 " clip-rule="nonzero"/></clipPath><clipPath id="0b727814a4"><rect x="0" width="301" y="0" height="301"/></clipPath></defs><g clip-path="url(#8e931b8708)"><g clip-path="url(#fb9bdfafa1)"><g transform="matrix(1, 0, 0, 1, 37, 37)"><g clip-path="url(#0b727814a4)"><g clip-path="url(#b02e493db3)"><g clip-path="url(#c69eb9857c)"><path fill="#8b5cf6" d="M 0.5 0.5 L 300.5 0.5 L 300.5 300.5 L 0.5 300.5 Z M 0.5 0.5 " fill-opacity="1" fill-rule="nonzero"/></g></g></g></g></g></g></svg>